<svg xmlns="http://www.w3.org/2000/svg" width="1120" height="901" viewBox="0 0 1120 901">
  <g id="Group_158" data-name="Group 158" transform="translate(-437 -96)">
    <g id="Group_157" data-name="Group 157" transform="translate(0 -60)">
      <path id="Path_115" data-name="Path 115" d="M-117.117,45.326V174h-31.3V120.31H-197.2V174h-31.122V45.326H-197.2V95.194h48.776V45.326Zm60.06,25.844q11.648,0,20.02,5.278A31.73,31.73,0,0,1-24.661,90.826V72.444H6.279V174h-30.94V155.618A31.73,31.73,0,0,1-37.037,170q-8.372,5.278-20.02,5.278a41.131,41.131,0,0,1-22.477-6.279,42.958,42.958,0,0,1-15.652-18.109q-5.733-11.83-5.733-27.664,0-16.016,5.733-27.755A43.061,43.061,0,0,1-79.534,77.449,41.131,41.131,0,0,1-57.057,71.17Zm10.01,27.3q-10.01,0-16.107,6.552t-6.1,18.2q0,11.648,6.1,18.2t16.107,6.552A21.04,21.04,0,0,0-30.94,141.24q6.279-6.734,6.279-18.018,0-11.466-6.279-18.109A21.181,21.181,0,0,0-47.047,98.47ZM73.619,71.17q19.656,0,32.942,10.829t16.744,29.757H90.363a17.379,17.379,0,0,0-6.006-10.192,17.775,17.775,0,0,0-11.466-3.64,16.632,16.632,0,0,0-13.468,6.461q-5.278,6.461-5.278,18.837t5.278,18.837a16.632,16.632,0,0,0,13.468,6.461,17.775,17.775,0,0,0,11.466-3.64,17.379,17.379,0,0,0,6.006-10.192h32.942q-3.458,18.928-16.744,29.757T73.619,175.274q-14.924,0-26.481-6.279a44.865,44.865,0,0,1-18.109-18.109q-6.552-11.83-6.552-27.664,0-16.016,6.461-27.755A44.279,44.279,0,0,1,47.047,77.449,55.109,55.109,0,0,1,73.619,71.17ZM201.019,174l-30.394-43.134V174H139.5V39.32h31.122v73.892l30.394-40.768H237.6l-40.95,50.778L238.511,174Z" transform="translate(960 686)" fill="#35adf8"/>
      <g id="Group_155" data-name="Group 155" transform="translate(359 -240)">
        <g id="Subtraction_14" data-name="Subtraction 14" transform="translate(16278 10849.151)" fill="none">
          <path d="M-15819.119-10191.6h0l-98.616-125.721,99.359-126.676v31.772l-74.355,94.8,74.355,94.8v30.072l-.742.949Z" stroke="none"/>
          <path d="M -15819.119140625 -10191.6015625 L -15917.7353515625 -10317.322265625 L -15818.3759765625 -10443.998046875 L -15818.3759765625 -10412.2255859375 L -15892.7314453125 -10317.42578125 L -15818.3759765625 -10222.6240234375 L -15818.3759765625 -10192.5517578125 L -15819.1181640625 -10191.6025390625 L -15819.119140625 -10191.6015625 Z" stroke="none" fill="#79e05a"/>
        </g>
        <g id="Subtraction_13" data-name="Subtraction 13" transform="translate(16510.869 10848.672)" fill="#962727">
          <path d="M-15768-10191.12v0h0l-.745-.947v-29.973l74.358-94.8-74.358-94.8v-31.878l99.358,126.677-98.612,125.727Z" stroke="none"/>
          <path d="M -15768 -10191.1201171875 L -15768 -10191.1220703125 L -15768 -10191.123046875 L -15768.7451171875 -10192.0703125 L -15768.7451171875 -10222.04296875 L -15694.38671875 -10316.84375 L -15768.7451171875 -10411.646484375 L -15768.7451171875 -10443.5244140625 L -15669.38671875 -10316.84765625 L -15767.9990234375 -10191.12109375 L -15768 -10191.1201171875 Z M -15768 -10191.123046875 L -15768.0009765625 -10191.123046875 L -15768 -10191.123046875 Z" stroke="none" fill="#79e05a"/>
        </g>
        <g id="Group_136" data-name="Group 136" transform="translate(474.436 404.672)">
          <g id="Path_28" data-name="Path 28" transform="translate(127.001) rotate(45)" fill="none">
            <path d="M0,0,158.632,19.172l19.389,160.435L19.389,160.435Z" stroke="none"/>
            <path d="M 22.91488647460938 22.9149169921875 L 37.36273193359375 142.4614868164062 L 155.1066589355469 156.6914215087891 L 140.6588439941406 37.1448974609375 L 22.91488647460938 22.9149169921875 M -1.52587890625e-05 -1.52587890625e-05 L 158.6322326660156 19.17152404785156 L 178.0216064453125 179.6063537597656 L 19.38938903808594 160.4348602294922 L -1.52587890625e-05 -1.52587890625e-05 Z" stroke="none" fill="#79e05a"/>
          </g>
          <path id="Path_29" data-name="Path 29" d="M770.006,500.791s55.423,27.617,111.085,27.955,111.563-26.6,111.563-26.6" transform="translate(-754.523 -433.498)" fill="none" stroke="#79e05a" stroke-width="20"/>
          <path id="Path_30" data-name="Path 30" d="M770.006,500.791s61.61,33.518,123.486,33.928,124.018-32.286,124.018-32.286" transform="translate(-766.952 -353.331)" fill="none" stroke="#79e05a" stroke-width="20"/>
        </g>
        <g id="Ellipse_132" data-name="Ellipse 132" transform="translate(466.354 396)" fill="none" stroke="#35adf8" stroke-width="20">
          <circle cx="135.037" cy="135.037" r="135.037" stroke="none"/>
          <circle cx="135.037" cy="135.037" r="125.037" fill="none"/>
        </g>
      </g>
      <path id="Path_116" data-name="Path 116" d="M-392.847-128.674V0h-31.3V-53.69h-48.776V0h-31.122V-128.674h31.122v49.868h48.776v-49.868Zm117.936,75.166a42.931,42.931,0,0,1-.91,8.372h-70.434q.546,11.466,5.824,16.471a18.783,18.783,0,0,0,13.468,5A18.408,18.408,0,0,0-315.5-27.118a16.148,16.148,0,0,0,6.006-8.918h32.942a43.042,43.042,0,0,1-8.736,19.2A46.561,46.561,0,0,1-302.393-3.549a54.169,54.169,0,0,1-23.114,4.823q-14.924,0-26.481-6.279A44.865,44.865,0,0,1-370.1-23.114q-6.552-11.83-6.552-27.664,0-16.016,6.461-27.755a44.279,44.279,0,0,1,18.109-18.018,55.109,55.109,0,0,1,26.572-6.279q15.106,0,26.572,6.188A43.716,43.716,0,0,1-281.19-79.261Q-274.911-68.068-274.911-53.508ZM-306.4-58.24q.182-10.01-5.369-15.015a19.763,19.763,0,0,0-13.741-5.005,20.381,20.381,0,0,0-14.2,5.1q-5.642,5.1-6.37,14.924Zm78.806-76.44V0h-31.122V-134.68Zm52.6,0V0h-31.122V-134.68Zm68.978,31.85a57.108,57.108,0,0,1,27.027,6.279A46.033,46.033,0,0,1-60.242-78.442q6.825,11.83,6.825,27.664t-6.825,27.664A46.033,46.033,0,0,1-78.988-5.005a57.108,57.108,0,0,1-27.027,6.279,57.652,57.652,0,0,1-27.118-6.279A45.889,45.889,0,0,1-151.97-23.114q-6.825-11.83-6.825-27.664t6.825-27.664a45.889,45.889,0,0,1,18.837-18.109A57.652,57.652,0,0,1-106.015-102.83Zm0,26.936a19.831,19.831,0,0,0-15.015,6.461q-6.1,6.461-6.1,18.655t6.1,18.564a19.966,19.966,0,0,0,15.015,6.37,19.677,19.677,0,0,0,14.924-6.37q6.006-6.37,6.006-18.564t-6.006-18.655A19.547,19.547,0,0,0-106.015-75.894Zm316.5-52.78L179.725,0H141.141L120.575-86.086,99.827,0H61.243L30.485-128.674H64.337L80.9-35.49l22.568-93.184H137.5L160.069-35.49l16.744-93.184Zm63.882,25.844a57.108,57.108,0,0,1,27.027,6.279,46.033,46.033,0,0,1,18.746,18.109q6.825,11.83,6.825,27.664t-6.825,27.664A46.033,46.033,0,0,1,301.392-5.005a57.108,57.108,0,0,1-27.027,6.279,57.652,57.652,0,0,1-27.118-6.279A45.889,45.889,0,0,1,228.41-23.114q-6.825-11.83-6.825-27.664t6.825-27.664a45.889,45.889,0,0,1,18.837-18.109A57.652,57.652,0,0,1,274.365-102.83Zm0,26.936a19.831,19.831,0,0,0-15.015,6.461q-6.1,6.461-6.1,18.655t6.1,18.564a19.966,19.966,0,0,0,15.015,6.37,19.677,19.677,0,0,0,14.924-6.37q6.006-6.37,6.006-18.564t-6.006-18.655A19.547,19.547,0,0,0,274.365-75.894Zm99.918-6.552A44.162,44.162,0,0,1,389.3-97.188a38.33,38.33,0,0,1,19.929-5.46v33.306h-8.918q-12.376,0-19.2,5.278t-6.825,17.836V0H343.161V-101.556h31.122Zm79.17-52.234V0H422.331V-134.68Zm60.06,31.85q11.648,0,20.02,5.278a30.649,30.649,0,0,1,12.194,14.378V-134.68h31.122V0H545.727V-18.382A30.649,30.649,0,0,1,533.533-4q-8.372,5.278-20.02,5.278a41.131,41.131,0,0,1-22.477-6.279,42.958,42.958,0,0,1-15.652-18.109q-5.733-11.83-5.733-27.664,0-16.016,5.733-27.755a43.061,43.061,0,0,1,15.652-18.018A41.131,41.131,0,0,1,513.513-102.83Zm10.01,27.3q-10.01,0-16.107,6.552t-6.1,18.2q0,11.648,6.1,18.2t16.107,6.552A21.041,21.041,0,0,0,539.63-32.76q6.279-6.734,6.279-18.018,0-11.466-6.279-18.109A21.181,21.181,0,0,0,523.523-75.53Z" transform="translate(960 686)" fill="#79e05a"/>
    </g>
    <text id="Stay_tuned_for_projects_:D" data-name="Stay tuned for projects  :D" transform="translate(437 966)" fill="#fff" font-size="88" font-family="Poppins-Regular, Poppins"><tspan x="0" y="0" xml:space="preserve">Stay tuned for projects  :D</tspan></text>
  </g>
</svg>
